<svg xmlns="http://www.w3.org/2000/svg" width="262.05" height="204.652" viewBox="0 0 262.05 204.652">
  <g id="Group_56" data-name="Group 56" transform="translate(0)" style="isolation: isolate">
    <path id="Path_136" data-name="Path 136" d="M160.907,271.282a27.393,27.393,0,0,1-40.274-.879l-61.12,57.853,85.946,90.8,81.923-77.544Z" transform="translate(-59.514 -214.938)" fill="#f2f2f2"/>
    <path id="Path_137" data-name="Path 137" d="M321.362,212.207a23.91,23.91,0,0,0,17.271-7.346L321.59,186.855l-18.209,17.236a23.921,23.921,0,0,0,17.981,8.115Z" transform="translate(-239.751 -153.19)" fill="#f2f2f2"/>
    <path id="Path_138" data-name="Path 138" d="M642.577,262.987a43.009,43.009,0,0,1-43.052,43.052q-.368,0-.736-.008c-1.033-.016-2.053-.068-3.068-.157a43.054,43.054,0,1,1,46.857-42.888Z" transform="translate(-426.801 -177.638)" fill="#f79e99"/>
    <path id="Path_139" data-name="Path 139" d="M626.329,247.4a42.812,42.812,0,0,0,5.189-15.415,43.052,43.052,0,0,0-72.541,25.2,42.89,42.89,0,0,0,26.074,11.89c1.015.089,2.035.141,3.068.157q.368.008.736.008A42.989,42.989,0,0,0,626.329,247.4Z" transform="translate(-428.656 -177.635)" fill="#ef6d6d" opacity="0.42"/>
    <rect id="Rectangle_77" data-name="Rectangle 77" width="74.145" height="67.233" transform="translate(97.627 136.358)" fill="#f79e99"/>
    <path id="Path_140" data-name="Path 140" d="M640.42,384.615a43.1,43.1,0,0,1-30.165,25.153h9.586V487H556.066l35.791-61.993,8.2-14.2.6-1.036L627.8,362.755Z" transform="translate(-446.504 -283.193)" opacity="0.1"/>
    <path id="Path_141" data-name="Path 141" d="M601.856,306.924,637.8,369.178l35.942,62.254H529.972l35.942-62.254Z" transform="translate(-411.69 -226.84)" fill="#fcc5c1"/>
    <path id="Path_142" data-name="Path 142" d="M146.325,729.64l-.476,3.969-2.7,1.27-3.016-.953-2.064.953-.635-3.651,3.651-4.128Z" transform="translate(-101.575 -537.383)" fill="#9f616a"/>
    <path id="Path_143" data-name="Path 143" d="M191.242,798.92s2.461-2.869,2.5-1.435,5.437,6.356,5.437,6.356,8.413,2.54,1.9,4.127-20.8-3.016-21.272-3.969,3.969-8.255,4.445-7.62A8.233,8.233,0,0,0,191.242,798.92Z" transform="translate(-148.397 -603.646)" fill="#2f2e41"/>
    <path id="Path_144" data-name="Path 144" d="M213.239,625.531s.952,7.461,0,8.572a3.309,3.309,0,0,0,0,3.651c.476.317-.635,1.587-1.429,2.222s-1.9,3.492-1.9,3.492-4.286,11.271-4.286,12.382-1.9,3.492-1.746,4.286-1.111,3.334-.952,3.81-2.064,4.762-1.429,5.4,9.366,2.857,8.89,1.429-.794-3.175-.476-3.175,1.746-1.746,1.429-2.381,9.525-17.3,9.525-17.3Z" transform="translate(-164.362 -477.405)" fill="#f79e99"/>
    <path id="Path_145" data-name="Path 145" d="M191.242,798.92s2.461-2.869,2.5-1.435,5.437,6.356,5.437,6.356,8.413,2.54,1.9,4.127-20.8-3.016-21.272-3.969,3.969-8.255,4.445-7.62A8.233,8.233,0,0,0,191.242,798.92Z" transform="translate(-148.397 -603.646)" opacity="0.1"/>
    <path id="Path_146" data-name="Path 146" d="M213.239,625.531s.952,7.461,0,8.572a3.309,3.309,0,0,0,0,3.651c.476.317-.635,1.587-1.429,2.222s-1.9,3.492-1.9,3.492-4.286,11.271-4.286,12.382-1.9,3.492-1.746,4.286-1.111,3.334-.952,3.81-2.064,4.762-1.429,5.4,9.366,2.857,8.89,1.429-.794-3.175-.476-3.175,1.746-1.746,1.429-2.381,9.525-17.3,9.525-17.3Z" transform="translate(-164.362 -477.405)" opacity="0.12"/>
    <path id="Path_147" data-name="Path 147" d="M229.595,729.282l1.746,4.445-.794,6.191-5.08-.317-2.857-2.54v-5.4Z" transform="translate(-164.526 -538.995)" fill="#9f616a"/>
    <path id="Path_148" data-name="Path 148" d="M281.627,795.318s1.746-5.715,2.7-4.127a25.119,25.119,0,0,1,1.587,3.175s7.779,5.08,9.842,5.08,3.969,2.54,1.27,3.492-23.336,2.222-23.653,0,.318-9.366,1.27-8.572S280.516,796.906,281.627,795.318Z" transform="translate(-217.511 -599.634)" fill="#2f2e41"/>
    <path id="Path_149" data-name="Path 149" d="M309.661,538.279s7,4.755,7.314,5.39,4.377,2.587,1.044,4.175-12.168-8.453-12.168-8.453Z" transform="translate(-241.576 -412.919)" fill="#9f616a"/>
    <path id="Path_150" data-name="Path 150" d="M300.323,502.991s5.08,9.842,4.127,10.16-4.762,2.222-4.762,2.222l-1.746-10Z" transform="translate(-235.731 -386.838)" fill="#f79e99"/>
    <path id="Path_151" data-name="Path 151" d="M300.323,502.991s5.08,9.842,4.127,10.16-4.762,2.222-4.762,2.222l-1.746-10Z" transform="translate(-235.731 -386.838)" opacity="0.1"/>
    <path id="Path_152" data-name="Path 152" d="M242.875,534.41s1.111,8.255.635,10,.318,27.939-.317,29.368-1.111,10.636-1.111,11.747,1.27,10.16,1.587,10.953,1.27,3.492.794,4.762-6.985,4.445-7.937,3.334-.159-4.6-.952-4.762-1.746-7.62-1.746-7.62l-5.239-29.209s-9.842-24.447-7.62-26.828S242.875,534.41,242.875,534.41Z" transform="translate(-178.599 -410.003)" fill="#f79e99"/>
    <circle id="Ellipse_56" data-name="Ellipse 56" cx="7.778" cy="7.778" r="7.778" transform="translate(50.623 52.496)" fill="#9f616a"/>
    <path id="Path_153" data-name="Path 153" d="M266.817,299.863s-2.54,6.667-2.222,8.1-7.461-2.54-7.461-2.54.476-7.778,0-9.842S266.817,299.863,266.817,299.863Z" transform="translate(-205.558 -233.238)" fill="#9f616a"/>
    <path id="Path_154" data-name="Path 154" d="M211.562,363.351c.035,1.332.057,2.126.057,2.126s-.476,7.3.317,9.683.794,4.127,1.27,5.715c.14.462,2.04.71,4.708.819,2.448.1,5.542.086,8.512.018,4.918-.114,9.5-.378,10.274-.519,1.746-.318-.317-3.016.317-4.445s-1.111-19.684-1.111-19.684.159-10.318-.635-14.287a44.848,44.848,0,0,0-4.445-11.112c-.635-.794-.159-1.27,1.27-2.222s0-4.6,0-4.6c-2.7-2.222-9.525-2.54-9.525-2.54s-10.477,10.795-11.112,13.017c-.384,1.343-.246,12.071-.078,20.354C211.447,358.785,211.515,361.557,211.562,363.351Z" transform="translate(-171.631 -253.292)" fill="#fcc5c1"/>
    <path id="Path_155" data-name="Path 155" d="M247.235,555.314s6.032,12.382,1.27,13.176-7.144-11.271-7.144-11.271Z" transform="translate(-193.913 -425.509)" fill="#9f616a"/>
    <path id="Path_156" data-name="Path 156" d="M259.285,256.143c.275-1.334-.745-2.581-1.818-3.419a13.288,13.288,0,0,0-8.175-2.788,8.906,8.906,0,0,0-5.8,1.925,8.044,8.044,0,0,0-2.518,6.563,13.05,13.05,0,0,0,2.63,6.69c.682.945,1.778,1.923,2.868,1.511a2.666,2.666,0,0,0,1.061-.9,16.458,16.458,0,0,0,1.819-2.8,11.128,11.128,0,0,1,1.281-2.207,2.6,2.6,0,0,1,2.229-1.021c.7.1,1.382.587,2.048.357.74-.257.919-1.2.978-1.985a13.467,13.467,0,0,1,.257-2.659C256.4,255.559,259.157,256.782,259.285,256.143Z" transform="translate(-193.61 -199.811)" fill="#2f2e41"/>
    <path id="Path_157" data-name="Path 157" d="M210.223,397.834c1.778,6.412,5.856,17.217,6.089,17.683.059.119.151.352.264.66,2.448.1,5.542.086,8.512.017a17.849,17.849,0,0,1-1-2.742c0-.794-3.81-21.272-3.81-21.272s3.016-9.048,5.715-16.668-8.017-6.112-8.017-6.112c-5.715-1.429-6.747,1.032-6.747,1.032s-.5,13.382-1.189,19.719a13.03,13.03,0,0,1-.557,3.14C209.232,393.758,209.576,395.507,210.223,397.834Z" transform="translate(-170.293 -287.776)" opacity="0.1"/>
    <path id="Path_158" data-name="Path 158" d="M217.134,350.346s7.3,3.016,4.6,10.636-5.715,16.668-5.715,16.668,3.81,20.478,3.81,21.272,2.381,5.08,1.429,5.874-7.3,2.381-7.461,1.587a53.689,53.689,0,0,0-1.746-5.4c-.317-.635-7.778-20.478-6.826-22.224.7-1.285,1.316-13.058,1.592-19.187a10.077,10.077,0,0,1,5.254-8.484A7,7,0,0,1,217.134,350.346Z" transform="translate(-167.146 -273.88)" fill="#fcc5c1"/>
    <rect id="Rectangle_79" data-name="Rectangle 79" width="9.393" height="9.393" transform="translate(69.92 122.922)" fill="#f79e99"/>
    <circle id="Ellipse_57" data-name="Ellipse 57" cx="2.87" cy="2.87" r="2.87" transform="translate(71.747 117.182)" fill="#ef6d6d"/>
    <circle id="Ellipse_58" data-name="Ellipse 58" cx="14.172" cy="14.172" r="14.172" transform="translate(171.375 0.444)" fill="#ef6d6d"/>
    <path id="Path_159" data-name="Path 159" d="M690.053,82.127c0,10.693-6.357,14.426-14.2,14.426s-14.2-3.734-14.2-14.426,14.2-24.3,14.2-24.3S690.053,71.434,690.053,82.127Z" transform="translate(-504.543 -57.831)" fill="#b97aa8"/>
    <path id="Path_160" data-name="Path 160" d="M638.411,37.086l.145-8.949,6.052-11.071-6.029,9.667.065-4.024,4.171-8.01-4.153,6.945h0l.117-7.237,4.466-6.377L638.8,13.27,638.872,0l-.462,17.567.038-.725-4.541-6.95,4.468,8.341-.423,8.083-.013-.215-5.235-7.314,5.219,8.072-.053,1.011-.009.015,0,.083-1.073,20.506h1.434l.172-10.592L643.6,29.83Z" transform="translate(-467.618)" fill="#3f3d56"/>
    <path id="Path_161" data-name="Path 161" d="M822.2,134.176c-3.393,10.14-10.605,11.664-18.042,9.176s-12.28-8.045-8.887-18.186,21.173-18.536,21.173-18.536S825.592,124.036,822.2,134.176Z" transform="translate(-602.479 -93.898)" fill="#b97aa8"/>
    <path id="Path_162" data-name="Path 162" d="M758.469,83.754l2.977-8.44,9.252-8.579-8.784,7.255,1.339-3.8,6.5-6.273-6.142,5.268h0l2.408-6.826,6.258-4.63-5.88,3.557,4.28-12.561-6.011,16.513.266-.675-2.1-8.032,1.59,9.328-2.966,7.531.056-.207-2.644-8.6,2.388,9.311-.371.942-.014.011-.022.08L753.32,94.04l1.36.455,3.524-9.99,7.492-5.985Z" transform="translate(-556.761 -36.015)" fill="#3f3d56"/>
    <path id="Path_163" data-name="Path 163" d="M553.587,131.177c3.846,9.977-.743,15.747-8.06,18.567s-14.591,1.622-18.436-8.355,4.51-27.776,4.51-27.776S549.742,121.2,553.587,131.177Z" transform="translate(-404.342 -99.058)" fill="#b97aa8"/>
    <path id="Path_164" data-name="Path 164" d="M497.39,90.631l-3.083-8.4,1.665-12.507L493.824,80.91l-1.386-3.778,1.011-8.974-1.378,7.974h0l-2.493-6.795,1.874-7.556-2.266,6.488-4.7-12.409,5.887,16.558-.225-.69-6.737-4.852,7.169,6.177,2.512,7.694-.089-.2-7.515-4.942,7.773,5.655.314.962,0,.017.034.076,6.373,19.52,1.338-.516-3.649-9.945,1.962-9.386Z" transform="translate(-357.275 -41.285)" fill="#3f3d56"/>
    <path id="Path_165" data-name="Path 165" d="M504.121,493.494a2.2,2.2,0,1,1-3.727-2.336c.88-1.4,3.862-2.02,3.862-2.02S505,492.091,504.121,493.494Z" transform="translate(-385.029 -376.6)" fill="#f79e99"/>
    <path id="Path_166" data-name="Path 166" d="M905.643,334.647a2.2,2.2,0,1,1-4.377.432c-.163-1.648,1.819-3.961,1.819-3.961S905.481,333,905.643,334.647Z" transform="translate(-681.626 -259.811)" fill="#f79e99"/>
    <path id="Path_167" data-name="Path 167" d="M486.185,378.947a2.2,2.2,0,1,1-3.727-2.336c.88-1.4,3.862-2.02,3.862-2.02S487.064,377.544,486.185,378.947Z" transform="translate(-371.773 -291.941)" fill="#f79e99"/>
  </g>
</svg>
